<?xml version="1.0" encoding="utf-8"?>
<!-- Generator: Adobe Illustrator 26.0.0, SVG Export Plug-In . SVG Version: 6.00 Build 0)  -->
<svg version="1.1" id="Layer_1" xmlns="http://www.w3.org/2000/svg" xmlns:xlink="http://www.w3.org/1999/xlink" x="0px" y="0px"
	 viewBox="0 0 2292 1506" style="enable-background:new 0 0 2292 1506;" xml:space="preserve">
<style type="text/css">
	.st0{fill:url(#SVGID_1_);}
	.st1{fill:url(#SVGID_00000047760944862801064450000013231103398149508787_);}
	.st2{fill:url(#SVGID_00000011735577731116574170000004262405331435487923_);}
</style>
<g>
	<g>
		<linearGradient id="SVGID_1_" gradientUnits="userSpaceOnUse" x1="1427.9875" y1="388.6058" x2="829.2013" y2="1141.4487">
			<stop  offset="0" style="stop-color:#33E1AE"/>
			<stop  offset="0.5223" style="stop-color:#19C0C8"/>
			<stop  offset="1" style="stop-color:#0891F1"/>
		</linearGradient>
		<path class="st0" d="M1513.3,572.9c0-1.2,0-2.4-0.1-3.6c-0.1-4.4-0.4-8.7-0.8-13c-0.1-0.9-0.2-1.9-0.3-2.8
			c-0.1-1.1-0.2-2.2-0.4-3.4c-0.2-1.7-0.4-3.5-0.7-5.2c-0.1-0.9-0.3-1.9-0.4-2.8c-0.1-0.8-0.2-1.5-0.4-2.3c-0.9-5.5-2-10.9-3.3-16.3
			c-0.3-1.1-0.6-2.2-0.8-3.3c-0.6-2.2-1.2-4.5-1.8-6.7c-0.3-1.1-0.7-2.2-1-3.3c-0.3-1.1-0.7-2.2-1-3.3c-1.1-3.3-2.2-6.6-3.4-9.8
			c-0.4-1.1-0.8-2.2-1.2-3.2l-1.3-3.2c-0.5-1.1-0.9-2.2-1.4-3.3c-0.9-2-1.8-4.1-2.7-6.1c0-0.1-0.1-0.1-0.1-0.2
			c-1.4-2.9-2.8-5.8-4.3-8.7c-0.2-0.5-0.5-1-0.8-1.5c-0.7-1.4-1.5-2.8-2.2-4.1c-0.4-0.7-0.7-1.4-1.2-2c-0.2-0.4-0.5-0.9-0.8-1.3
			c-0.7-1.2-1.4-2.4-2.1-3.5c-0.7-1.2-1.4-2.3-2.2-3.5c-0.4-0.6-0.7-1.1-1.1-1.7c-0.6-0.9-1.2-1.9-1.8-2.8c-0.5-0.8-1-1.5-1.5-2.3
			c-0.7-1-1.4-2-2.1-3c-0.9-1.2-1.7-2.4-2.6-3.5c0,0,0,0,0,0c-0.7-0.9-1.4-1.9-2.1-2.8c-0.9-1.2-1.8-2.4-2.7-3.6
			c-0.7-0.9-1.4-1.7-2.1-2.6c-0.5-0.7-1.1-1.4-1.7-2c-0.7-0.8-1.4-1.6-2-2.4c-0.4-0.5-0.9-1-1.3-1.5c-1.1-1.2-2.2-2.5-3.2-3.7
			c-0.1-0.1-0.1-0.2-0.2-0.3c-0.5-0.5-1-1-1.5-1.6c-1.5-1.6-3-3.2-4.6-4.8c-1.6-1.6-3.1-3.1-4.7-4.7c-1.6-1.5-3.2-3-4.9-4.5
			c-1.6-1.5-3.3-2.9-5-4.4c-1.2-1-2.4-2-3.6-3c-1.2-1-2.4-1.9-3.5-2.8c-0.3-0.3-0.7-0.5-1-0.8c-1.3-1-2.5-1.9-3.8-2.8
			c-0.7-0.5-1.3-1-2-1.5c-0.7-0.5-1.5-1.1-2.2-1.6c-0.4-0.3-0.7-0.5-1.1-0.8c-0.7-0.5-1.4-1-2.2-1.5c-1.5-1-2.9-2-4.4-2.9
			c-0.6-0.4-1.2-0.8-1.7-1.1c-1.4-0.9-2.8-1.8-4.2-2.6c-2.1-1.3-4.2-2.5-6.3-3.7c-0.3-0.1-0.5-0.3-0.8-0.4c-1-0.6-2.1-1.2-3.2-1.7
			c-0.3-0.1-0.5-0.3-0.8-0.4c-1.1-0.6-2.2-1.2-3.3-1.7c-3-1.5-6-3-9-4.3c-0.8-0.4-1.7-0.7-2.5-1.1c-0.8-0.4-1.7-0.7-2.5-1.1
			c-0.8-0.3-1.5-0.6-2.2-0.9c-0.2-0.1-0.4-0.2-0.7-0.3c-1.6-0.6-3.2-1.3-4.8-1.9c-0.7-0.3-1.4-0.6-2.1-0.8c-0.4-0.1-0.7-0.3-1-0.4
			c-1.1-0.4-2.2-0.8-3.4-1.2c-0.7-0.2-1.4-0.5-2.1-0.7c-0.6-0.2-1.2-0.4-1.8-0.6c-0.9-0.3-1.7-0.6-2.7-0.9c-0.3-0.1-0.6-0.2-0.9-0.3
			c-0.9-0.3-1.9-0.6-2.8-0.8c-1-0.3-2.1-0.6-3.1-0.9c-3.1-0.9-6.2-1.7-9.3-2.4c-1.2-0.3-2.5-0.5-3.7-0.8c-5.2-1.1-10.5-2.1-15.9-2.8
			c-0.7-0.1-1.5-0.2-2.2-0.3c-2.7-0.4-5.3-0.7-8-0.9c-2.2-0.2-4.5-0.4-6.7-0.5c-0.5,0-1.1-0.1-1.6-0.1c-1.4-0.1-2.8-0.1-4.2-0.2
			c-1.2-0.1-2.5-0.1-3.8-0.1c-1.7,0-3.3-0.1-5-0.1h-177.6h-104.9h0c-2.7,0-5.5,0.1-8.2,0.2c-0.6,0-1.1,0-1.7,0.1
			c-2.7,0.1-5.4,0.3-8.1,0.5c-0.1,0-0.2,0-0.4,0c-2.7,0.2-5.4,0.5-8.1,0.8c-0.3,0-0.6,0.1-0.8,0.1c-2.8,0.3-5.6,0.7-8.4,1.2
			c0,0,0,0-0.1,0c-0.1,0-0.2,0-0.2,0c-1.9,0.3-3.7,0.6-5.6,1c-0.1,0-0.1,0-0.2,0c-1.9,0.4-3.7,0.7-5.6,1.1c0,0-0.1,0-0.1,0
			c-1.9,0.4-3.8,0.8-5.6,1.3c0,0,0,0,0,0c-30.5,7.4-58.6,20.9-82.9,39.3c-0.2,0.1-0.3,0.2-0.5,0.4c-1.3,1-2.6,2-3.9,3
			c-0.3,0.2-0.6,0.5-0.9,0.7c-1.1,0.9-2.2,1.8-3.3,2.7c-0.4,0.3-0.8,0.7-1.2,1.1c-1,0.8-2,1.7-2.9,2.5c-0.5,0.4-1,0.9-1.5,1.3
			c-0.9,0.8-1.8,1.6-2.6,2.4c-0.6,0.5-1.1,1-1.6,1.5c-0.8,0.7-1.6,1.5-2.3,2.2c-0.6,0.6-1.2,1.2-1.8,1.7c-0.7,0.7-1.4,1.4-2.1,2.1
			c-0.6,0.6-1.3,1.3-1.9,1.9c-0.6,0.7-1.3,1.3-1.9,2c-0.7,0.7-1.3,1.4-2,2.1c-0.6,0.6-1.2,1.3-1.7,1.9c-0.7,0.8-1.4,1.5-2,2.3
			c-0.5,0.6-1,1.2-1.5,1.8c-0.7,0.8-1.4,1.6-2.1,2.5c-0.5,0.6-0.9,1.1-1.4,1.7c-0.7,0.9-1.4,1.8-2.1,2.6c-0.4,0.5-0.8,1.1-1.2,1.6
			c-0.7,0.9-1.5,1.9-2.2,2.8c-0.4,0.5-0.7,1-1.1,1.5c-0.7,1-1.5,2-2.2,3c-0.3,0.4-0.6,0.9-0.9,1.3c-0.7,1-1.3,1.9-2,2.9
			c-0.1,0.1-0.1,0.2-0.2,0.3c-1.4,2-2.7,4-4,6.1c-0.2,0.3-0.4,0.7-0.7,1.1c-11.5,18.4-20.4,38.5-26.2,60c0,0,0,0,0,0.1
			c-1.4,5.3-2.7,10.6-3.7,16c-0.1,0.3-0.1,0.5-0.2,0.8c-1,5.2-1.8,10.4-2.4,15.7c-0.1,0.5-0.1,1-0.2,1.5c-0.6,5.1-1,10.3-1.2,15.5
			c0,0.6-0.1,1.3-0.1,1.9c-0.1,2.6-0.1,5.2-0.1,7.8c0,0,0,0,0,0v0.1c0,0,0,0.1,0,0.1c0,2.6,0.1,5.2,0.1,7.7c0,0.8,0.1,1.5,0.1,2.3
			c0.1,2,0.2,4,0.3,6c0,0.6,0.1,1.3,0.1,1.9c0.2,2.6,0.4,5.1,0.7,7.6c0.1,0.5,0.1,1,0.2,1.5c0.3,2.1,0.5,4.2,0.9,6.3
			c0.1,0.7,0.2,1.3,0.3,2c0.4,2.4,0.8,4.8,1.2,7.2c0,0.1,0,0.2,0.1,0.3c0.5,2.6,1,5.1,1.6,7.7c0.1,0.5,0.2,1,0.3,1.5
			c0.5,2.1,1,4.3,1.6,6.4c0.1,0.4,0.2,0.9,0.4,1.3c0.7,2.5,1.4,5,2.2,7.5c0,0.1,0,0.1,0.1,0.2c0.7,2.3,1.5,4.7,2.3,7
			c0.2,0.6,0.4,1.1,0.6,1.7c0.7,2,1.5,4,2.2,6c0.2,0.4,0.3,0.8,0.5,1.2c0.9,2.2,1.8,4.5,2.8,6.7c0.3,0.8,0.7,1.5,1,2.3
			c0.6,1.4,1.3,2.8,1.9,4.2c0.5,1,1,2,1.4,3c0.5,1,1,2.1,1.6,3.1c1.3,2.6,2.7,5.2,4.2,7.8c0.1,0.1,0.1,0.3,0.2,0.4
			c3.1,5.4,6.3,10.8,9.8,15.9c15.5,22.8,35.1,42.6,57.7,58.4c0.2,0.1,0.3,0.2,0.5,0.3c1.2,0.8,2.4,1.7,3.6,2.5
			c0.2,0.2,0.5,0.3,0.7,0.5c1.2,0.8,2.4,1.6,3.6,2.3c0.2,0.1,0.4,0.3,0.7,0.4c3.6,2.3,7.3,4.4,11,6.5c0.5,0.3,1,0.6,1.5,0.8
			c0.9,0.5,1.8,1,2.7,1.4c0.7,0.4,1.4,0.7,2.1,1.1c0.9,0.4,1.7,0.9,2.6,1.3c0.8,0.4,1.5,0.8,2.3,1.1c0.8,0.4,1.7,0.8,2.5,1.2
			c0.8,0.4,1.6,0.7,2.4,1.1c0.8,0.4,1.7,0.8,2.5,1.1c0.8,0.4,1.6,0.7,2.4,1c0.9,0.4,1.7,0.7,2.6,1.1c0.8,0.3,1.6,0.6,2.4,1
			c2.2,0.9,4.3,1.7,6.5,2.5c0.3,0.1,0.5,0.2,0.8,0.3c1.1,0.4,2.2,0.7,3.2,1.1c0.6,0.2,1.2,0.4,1.8,0.6c1.1,0.4,2.2,0.7,3.3,1.1
			c0.6,0.2,1.2,0.4,1.7,0.5c1.2,0.4,2.3,0.7,3.5,1c0.5,0.1,1,0.3,1.5,0.4c1.3,0.4,2.6,0.7,3.8,1c0.3,0.1,0.7,0.2,1,0.3
			c6.7,1.7,13.5,3.1,20.3,4.2c0.8,0.1,1.7,0.2,2.5,0.3c1.4,0.2,2.7,0.4,4.1,0.6c1.1,0.1,2.2,0.3,3.3,0.4c2.2,0.2,4.4,0.5,6.5,0.6
			c0.7,0.1,1.5,0.1,2.2,0.2c2.5,0.2,5,0.3,7.5,0.4c0.5,0,1,0,1.5,0.1c2.7,0.1,5.4,0.2,8.1,0.2h0h266.8c35,0,66.7,14.2,89.7,37.2
			c23,23,37.2,54.7,37.2,89.7c0,70.1-56.8,126.9-126.9,126.9h-39.4h-82l75.4-201.7H921.3l-75.4,201.7l-36.7,98.2v1h197.2h225.9h39.3
			c124.8,0,226-101.2,226-226c0-67.9-29.9-128.7-77.3-170.2c2.8-2,5.5-4.1,8.2-6.3c0.8-0.7,1.7-1.4,2.5-2.1c1.7-1.4,3.3-2.8,5-4.2
			c1.6-1.4,3.2-2.9,4.8-4.4c1.6-1.4,3.2-2.9,4.7-4.5c0.5-0.4,1-0.9,1.5-1.4c0.6-0.6,1.1-1.2,1.7-1.8c1.2-1.2,2.4-2.5,3.6-3.8
			c3.2-3.5,6.4-7,9.4-10.7c0.6-0.8,1.3-1.6,1.9-2.4c0.5-0.6,0.9-1.2,1.4-1.8c0.7-0.9,1.4-1.7,2-2.6c0.6-0.9,1.3-1.7,1.9-2.6
			c0.6-0.9,1.3-1.8,1.9-2.6c0.5-0.6,0.9-1.3,1.4-2c0.3-0.4,0.6-0.8,0.9-1.2c1.1-1.6,2.2-3.2,3.3-4.9c1.7-2.6,3.4-5.3,5-8
			c0.2-0.4,0.4-0.7,0.6-1.1c0.4-0.7,0.8-1.4,1.2-2.1c0.5-1,1.1-1.9,1.6-2.9c1.1-1.9,2.1-3.8,3.1-5.8c0.5-1,1-1.9,1.5-3
			c1-1.9,1.9-3.9,2.8-5.9c0.6-1.2,1.1-2.3,1.6-3.5c0.5-1.2,1-2.4,1.6-3.6c0.4-0.9,0.7-1.7,1.1-2.6c0.5-1.2,0.9-2.3,1.4-3.5
			c0.5-1.3,1-2.6,1.5-4c0.2-0.4,0.3-0.8,0.4-1.2c0.6-1.6,1.1-3.1,1.6-4.7c0.1-0.1,0.1-0.2,0.1-0.4c0.6-1.7,1.1-3.5,1.7-5.2
			c0.1-0.4,0.2-0.8,0.4-1.2c0.6-2,1.2-4.1,1.7-6.1c0.7-2.6,1.4-5.3,2-8c0.2-1,0.4-2,0.7-3c0.2-0.8,0.4-1.7,0.5-2.5
			c0.7-3.5,1.4-7.1,1.9-10.8c0.9-5.9,1.6-11.8,2-17.8c0.1-0.7,0.1-1.4,0.1-2.1c0.1-1.1,0.1-2.2,0.2-3.3c0-0.8,0.1-1.6,0.1-2.4
			c0.1-2.9,0.2-5.8,0.2-8.7v-0.1C1513.3,575.3,1513.3,574.1,1513.3,572.9z M1072.6,449.7h178.8l52,52l13.9,13.9
			c7.5-3,15.7-4.7,24.3-4.7c36.2,0,65.6,29.4,65.6,65.6c0,36.3-29.4,65.7-65.6,65.7c-36.3,0-65.7-29.4-65.7-65.7
			c0-8.6,1.6-16.7,4.6-24.3l-50.6-50.6h-176.8l-74.4,199c-1.6-0.3-3.2-0.7-4.7-1.1c-0.4-0.1-0.7-0.2-1.1-0.3
			c-1.3-0.3-2.6-0.7-3.9-1.1c-3.6-1.1-7.2-2.3-10.6-3.7c-0.3-0.1-0.6-0.2-0.9-0.4c-0.9-0.4-1.8-0.7-2.7-1.1
			c-0.4-0.2-0.8-0.4-1.2-0.5c-0.9-0.4-1.7-0.8-2.5-1.2c-0.4-0.2-0.9-0.4-1.3-0.6c-0.8-0.4-1.7-0.8-2.5-1.2c-0.4-0.2-0.8-0.4-1.2-0.6
			c-0.9-0.4-1.7-0.9-2.5-1.4c-0.3-0.1-0.5-0.3-0.8-0.5c-3.1-1.7-6.1-3.6-9.1-5.6c-0.1-0.1-0.3-0.2-0.4-0.3c-0.9-0.6-1.7-1.2-2.6-1.8
			c-0.3-0.2-0.5-0.4-0.8-0.6c-0.8-0.6-1.6-1.2-2.5-1.9c-0.3-0.2-0.5-0.4-0.8-0.6c-0.8-0.6-1.6-1.3-2.4-2c-0.2-0.2-0.5-0.4-0.7-0.6
			c-0.8-0.7-1.7-1.4-2.5-2.1c-0.1-0.1-0.2-0.2-0.4-0.3c-1.9-1.7-3.7-3.4-5.5-5.1c-22.9-22.9-37.1-54.7-37.1-89.7
			c0-34.1,13.5-65.1,35.4-87.9c0.1-0.1,0.1-0.1,0.2-0.2c1.1-1.1,2.2-2.2,3.3-3.3c0.2-0.2,0.3-0.3,0.5-0.5c1.1-1.1,2.2-2.1,3.4-3.1
			c0,0,0.1-0.1,0.1-0.1c3.6-3.2,7.4-6.2,11.4-8.9c0.2-0.1,0.3-0.2,0.5-0.3c1.1-0.8,2.3-1.5,3.4-2.3c0.4-0.2,0.8-0.5,1.2-0.7
			c1.1-0.7,2.2-1.4,3.3-2c0.4-0.2,0.8-0.5,1.3-0.7c1.2-0.7,2.3-1.3,3.5-1.9c0.2-0.1,0.5-0.3,0.7-0.4c3.9-2,8-3.9,12.1-5.5
			c0.5-0.2,1-0.4,1.6-0.6c1.1-0.4,2.3-0.8,3.5-1.2c0.6-0.2,1.2-0.4,1.8-0.6c1.2-0.4,2.3-0.8,3.5-1.1c0.7-0.2,1.4-0.4,2.1-0.6
			c1.6-0.5,3.3-0.9,5-1.3c0.8-0.2,1.6-0.4,2.5-0.6c0.9-0.2,1.9-0.4,2.8-0.6c0.9-0.2,1.8-0.3,2.8-0.5c0.9-0.1,1.7-0.3,2.6-0.4
			c1.7-0.2,3.4-0.5,5-0.6c0.6-0.1,1.3-0.1,1.9-0.2c1.3-0.1,2.7-0.2,4-0.3c0.6,0,1.3-0.1,1.9-0.1c1.9-0.1,3.7-0.1,5.6-0.1
			c0,0,0.1,0,0.1,0H1072.6z"/>
		
			<linearGradient id="SVGID_00000096744883028307595160000001671675904037463967_" gradientUnits="userSpaceOnUse" x1="1466.5891" y1="419.3082" x2="867.8029" y2="1172.1511">
			<stop  offset="0" style="stop-color:#33E1AE"/>
			<stop  offset="0.5223" style="stop-color:#19C0C8"/>
			<stop  offset="1" style="stop-color:#0891F1"/>
		</linearGradient>
		<path style="fill:url(#SVGID_00000096744883028307595160000001671675904037463967_);" d="M1341.5,596.1c10.8,0,19.5-8.7,19.5-19.5
			c0-10.8-8.7-19.5-19.5-19.5c-10.8,0-19.5,8.7-19.5,19.5C1322,587.3,1330.7,596.1,1341.5,596.1z"/>
	</g>
	
		<linearGradient id="SVGID_00000123419123905821294390000018246760002782945939_" gradientUnits="userSpaceOnUse" x1="1246.0129" y1="706.4629" x2="1246.0129" y2="507.9498">
		<stop  offset="0" style="stop-color:#050730;stop-opacity:0.1"/>
		<stop  offset="1" style="stop-color:#050730;stop-opacity:0"/>
	</linearGradient>
	<path style="fill:url(#SVGID_00000123419123905821294390000018246760002782945939_);" d="M1513.3,572.9c0-1.2,0-2.4-0.1-3.6
		c-0.1-4.4-0.4-8.7-0.8-13c-0.1-0.9-0.2-1.9-0.3-2.8c-0.1-1.1-0.2-2.2-0.4-3.4c-0.2-1.7-0.4-3.5-0.7-5.2c-0.1-0.9-0.3-1.9-0.4-2.8
		c-0.1-0.8-0.2-1.5-0.4-2.3c-0.9-5.5-2-10.9-3.3-16.3c-0.3-1.1-0.6-2.2-0.8-3.3c-0.6-2.2-1.2-4.5-1.8-6.7c-0.3-1.1-0.7-2.2-1-3.3
		c-0.3-1.1-0.7-2.2-1-3.3c-1.1-3.3-2.2-6.6-3.4-9.8c-0.4-1.1-0.8-2.2-1.2-3.2l-1.3-3.2c-0.5-1.1-0.9-2.2-1.4-3.3
		c-0.9-2-1.8-4.1-2.7-6.1c0-0.1-0.1-0.1-0.1-0.2c-1.4-2.9-2.8-5.8-4.3-8.7c-0.2-0.5-0.5-1-0.8-1.5c-0.7-1.4-1.5-2.8-2.2-4.1
		c-0.4-0.7-0.7-1.4-1.2-2c-0.2-0.4-0.5-0.9-0.8-1.3c-0.7-1.2-1.4-2.4-2.1-3.5c-0.7-1.2-1.4-2.3-2.2-3.5c-0.4-0.6-0.7-1.1-1.1-1.7
		c-0.6-0.9-1.2-1.9-1.8-2.8c-0.5-0.8-1-1.5-1.5-2.3c-0.7-1-1.4-2-2.1-3c-0.9-1.2-1.7-2.4-2.6-3.5c0,0,0,0,0,0
		c-0.7-0.9-1.4-1.9-2.1-2.8c-0.9-1.2-1.8-2.4-2.7-3.6c-0.7-0.9-1.4-1.7-2.1-2.6c-0.5-0.7-1.1-1.4-1.7-2c-0.7-0.8-1.4-1.6-2-2.4
		c-0.4-0.5-0.9-1-1.3-1.5c-1.1-1.2-2.2-2.5-3.2-3.7c-0.1-0.1-0.1-0.2-0.2-0.3c-0.5-0.5-1-1-1.5-1.6c-1.5-1.6-3-3.2-4.6-4.8
		c-1.6-1.6-3.1-3.1-4.7-4.7c-1.6-1.5-3.2-3-4.9-4.5c-1.6-1.5-3.3-2.9-5-4.4c-1.2-1-2.4-2-3.6-3c-1.2-1-2.4-1.9-3.5-2.8
		c-0.3-0.3-0.7-0.5-1-0.8c-1.3-1-2.5-1.9-3.8-2.8c-0.7-0.5-1.3-1-2-1.5c-0.7-0.5-1.5-1.1-2.2-1.6c-0.4-0.3-0.7-0.5-1.1-0.8
		c-0.7-0.5-1.4-1-2.2-1.5c-1.5-1-2.9-2-4.4-2.9c-0.6-0.4-1.2-0.8-1.7-1.1c-1.4-0.9-2.8-1.8-4.2-2.6c-2.1-1.3-4.2-2.5-6.3-3.7
		c-0.3-0.1-0.5-0.3-0.8-0.4c-1-0.6-2.1-1.2-3.2-1.7c-0.3-0.1-0.5-0.3-0.8-0.4c-1.1-0.6-2.2-1.2-3.3-1.7c-3-1.5-6-3-9-4.3
		c-0.8-0.4-1.7-0.7-2.5-1.1c-0.8-0.4-1.7-0.7-2.5-1.1c-0.8-0.3-1.5-0.6-2.2-0.9c-0.2-0.1-0.4-0.2-0.7-0.3c-1.6-0.6-3.2-1.3-4.8-1.9
		c-0.7-0.3-1.4-0.6-2.1-0.8c-0.4-0.1-0.7-0.3-1-0.4c-1.1-0.4-2.2-0.8-3.4-1.2c-0.7-0.2-1.4-0.5-2.1-0.7c-0.6-0.2-1.2-0.4-1.8-0.6
		c-0.9-0.3-1.7-0.6-2.7-0.9c-0.3-0.1-0.6-0.2-0.9-0.3c-0.9-0.3-1.9-0.6-2.8-0.8c-1-0.3-2.1-0.6-3.1-0.9c-3.1-0.9-6.2-1.7-9.3-2.4
		c-1.2-0.3-2.5-0.5-3.7-0.8c-5.2-1.1-10.5-2.1-15.9-2.8c-0.7-0.1-1.5-0.2-2.2-0.3c-2.7-0.4-5.3-0.7-8-0.9c-2.2-0.2-4.5-0.4-6.7-0.5
		c-0.5,0-1.1-0.1-1.6-0.1c-1.4-0.1-2.8-0.1-4.2-0.2c-1.2-0.1-2.5-0.1-3.8-0.1c-1.7,0-3.3-0.1-5-0.1h-177.6l-37.1,99.2h178.8l52,52
		l13.9,13.9c7.5-3,15.7-4.7,24.3-4.7c36.2,0,65.6,29.4,65.6,65.6c0,36.3-29.4,65.7-65.6,65.7c-36.3,0-65.7-29.4-65.7-65.7
		c0-8.6,1.6-16.7,4.6-24.3l-50.6-50.6h-176.8l-74.4,199c8.4,1.8,17.1,2.7,26,2.7h266.8c57,0,109,21.1,148.8,55.9
		c2.8-2,5.5-4.1,8.2-6.3c0.8-0.7,1.7-1.4,2.5-2.1c1.7-1.4,3.3-2.8,5-4.2c1.6-1.4,3.2-2.9,4.8-4.4c1.6-1.4,3.2-2.9,4.7-4.5
		c0.5-0.4,1-0.9,1.5-1.4c0.6-0.6,1.1-1.2,1.7-1.8c1.2-1.2,2.4-2.5,3.6-3.8c3.2-3.5,6.4-7,9.4-10.7c0.6-0.8,1.3-1.6,1.9-2.4
		c0.5-0.6,0.9-1.2,1.4-1.8c0.7-0.9,1.4-1.7,2-2.6c0.6-0.9,1.3-1.7,1.9-2.6c0.6-0.9,1.3-1.8,1.9-2.6c0.5-0.6,0.9-1.3,1.4-2
		c0.3-0.4,0.6-0.8,0.9-1.2c1.1-1.6,2.2-3.2,3.3-4.9c1.7-2.6,3.4-5.3,5-8c0.2-0.4,0.4-0.7,0.6-1.1c0.4-0.7,0.8-1.4,1.2-2.1
		c0.5-1,1.1-1.9,1.6-2.9c1.1-1.9,2.1-3.8,3.1-5.8c0.5-1,1-1.9,1.5-3c1-1.9,1.9-3.9,2.8-5.9c0.6-1.2,1.1-2.3,1.6-3.5
		c0.5-1.2,1-2.4,1.6-3.6c0.4-0.9,0.7-1.7,1.1-2.6c0.5-1.2,0.9-2.3,1.4-3.5c0.5-1.3,1-2.6,1.5-4c0.2-0.4,0.3-0.8,0.4-1.2
		c0.6-1.6,1.1-3.1,1.6-4.7c0.1-0.1,0.1-0.2,0.1-0.4c0.6-1.7,1.1-3.5,1.7-5.2c0.1-0.4,0.2-0.8,0.4-1.2c0.6-2,1.2-4.1,1.7-6.1
		c0.7-2.6,1.4-5.3,2-8c0.2-1,0.4-2,0.7-3c0.2-0.8,0.4-1.7,0.5-2.5c0.7-3.5,1.4-7.1,1.9-10.8c0.9-5.9,1.6-11.8,2-17.8
		c0.1-0.7,0.1-1.4,0.1-2.1c0.1-1.1,0.1-2.2,0.2-3.3c0-0.8,0.1-1.6,0.1-2.4c0.1-2.9,0.2-5.8,0.2-8.7v-0.1
		C1513.3,575.3,1513.3,574.1,1513.3,572.9z"/>
</g>
</svg>
