<?xml version="1.0" encoding="utf-8"?>
<!-- Generator: Adobe Illustrator 26.0.0, SVG Export Plug-In . SVG Version: 6.00 Build 0)  -->
<svg version="1.1" id="Layer_1" xmlns="http://www.w3.org/2000/svg" xmlns:xlink="http://www.w3.org/1999/xlink" x="0px" y="0px"
	 viewBox="430 630 1410 240" style="enable-background:new 430 630 1410 240;" xml:space="preserve">
<style type="text/css">
	.st0{fill:#FFFFFF;}
	.st1{fill:url(#SVGID_1_);}
	.st2{fill:url(#SVGID_00000025402678401731758250000006561633920647162024_);}
	.st3{fill:url(#SVGID_00000183942511202935091190000010220449462712990849_);}
</style>
<g>
	<g>
		<g>
			<path class="st0" d="M791.9,815.3c-24.5,0-43.3-13.4-43.3-35h21.5c0.9,10,7.9,18.1,21.8,18.1c14.1,0,22-7.6,22-17.9
				c0-29.6-64.9-10.4-64.9-55.4c0-21.5,17.1-34.8,42.1-34.8c23.4,0,39.9,12.3,41.7,33.3h-22.2c-0.7-8.3-7.9-15.8-20.6-16.2
				c-11.6-0.4-20.6,5.3-20.6,17.1c0,27.6,64.8,10.4,64.8,55.1C834.2,797.7,819.2,815.3,791.9,815.3z"/>
			<path class="st0" d="M897,715.6c16.4,0,27.6,7.7,33.6,15.7v-14.1h20.2v97h-20.2v-14.4c-6.2,8.3-17.8,16-34,16
				c-25.2,0-45.4-20.6-45.4-50.5C851.2,735.3,871.5,715.6,897,715.6z M901.2,733c-15,0-29.4,11.3-29.4,32.2
				c0,20.9,14.4,33.1,29.4,33.1c15.1,0,29.4-11.8,29.4-32.7C930.6,744.8,916.3,733,901.2,733z"/>
			<path class="st0" d="M977.2,683.9h20.1v130.2h-20.1V683.9z"/>
			<path class="st0" d="M1065.4,815.7c-27.8,0-48.4-19.7-48.4-50.1s19.7-50,48.4-50c27.6,0,47.2,19.2,47.2,47.7
				c0,3.3-0.2,6.5-0.7,9.9h-74.1c1.4,16,12.8,25.7,27.6,25.7c12.3,0,19.2-6,22.9-13.5h21.6C1104.4,802.1,1089.1,815.7,1065.4,815.7z
				 M1037.9,756.9h53.7c-0.4-15-12.1-24.5-27.1-24.5C1050.9,732.5,1040,741.6,1037.9,756.9z"/>
			<path class="st0" d="M1167.4,815.7c-23.2,0-39.6-13.7-40.5-31.3h20.8c0.7,7.9,8.3,14.4,19.4,14.4c11.6,0,17.8-4.9,17.8-11.6
				c0-19-56.3-8.1-56.3-43.6c0-15.5,14.4-28,37.3-28c22,0,36.4,11.8,37.5,31.1h-20.1c-0.7-8.4-7.2-14.3-18.1-14.3
				c-10.7,0-16.4,4.4-16.4,10.9c0,19.5,54.7,8.6,55.8,43.6C1204.5,803.4,1190.3,815.7,1167.4,815.7z"/>
			<path class="st0" d="M1320.8,814.1h-48.9V691.8h46.6c25.9,0,39.6,14.3,39.6,31.5c0,14.8-9,23.8-20.8,28
				c13,2.3,23.6,15.3,23.6,29.9C1360.9,799.9,1345.8,814.1,1320.8,814.1z M1316.8,708.2H1292v35h24.8c13,0,20.9-6.2,20.9-17.4
				C1337.7,714.7,1329.8,708.2,1316.8,708.2z M1318.4,759.6H1292v38.2h27.1c13.5,0,21.8-6.9,21.8-18.6
				C1340.9,766.9,1331.7,759.6,1318.4,759.6z"/>
			<path class="st0" d="M1470.6,814.1h-20.1v-11.6c-6.3,8.3-17.2,13-28.7,13c-22.7,0-39.9-14.3-39.9-41.4v-57h19.9v54
				c0,17.8,9.7,26.9,24.3,26.9c14.8,0,24.5-9.1,24.5-26.9v-54h20.1V814.1z"/>
			<path class="st0" d="M1536.2,715.6c12.7,0,26,6,33.4,15.1v-46.8h20.2v130.2h-20.2v-14.6c-6.2,8.8-17.8,16.2-33.6,16.2
				c-25.5,0-45.7-20.6-45.7-50.5C1490.2,735.3,1510.5,715.6,1536.2,715.6z M1540.2,733c-15,0-29.4,11.3-29.4,32.2
				c0,20.9,14.4,33.1,29.4,33.1c15.1,0,29.4-11.8,29.4-32.7C1569.6,744.8,1555.4,733,1540.2,733z"/>
			<path class="st0" d="M1655.5,715.6c12.7,0,26,6,33.4,15.1v-46.8h20.2v130.2h-20.2v-14.6c-6.2,8.8-17.8,16.2-33.6,16.2
				c-25.5,0-45.7-20.6-45.7-50.5C1609.5,735.3,1629.8,715.6,1655.5,715.6z M1659.5,733c-15,0-29.4,11.3-29.4,32.2
				c0,20.9,14.4,33.1,29.4,33.1c15.1,0,29.4-11.8,29.4-32.7C1688.9,744.8,1674.6,733,1659.5,733z"/>
			<path class="st0" d="M1802,717.2h20.8l-59.5,142.5h-20.8l19.7-47.2l-38.2-95.4h22.3l27.3,73.9L1802,717.2z"/>
		</g>
	</g>
	<g>
		<g>
			<linearGradient id="SVGID_1_" gradientUnits="userSpaceOnUse" x1="646.2797" y1="653.6417" x2="482.9921" y2="858.9402">
				<stop  offset="0" style="stop-color:#33E1AE"/>
				<stop  offset="0.5223" style="stop-color:#19C0C8"/>
				<stop  offset="1" style="stop-color:#0891F1"/>
			</linearGradient>
			<path class="st1" d="M669.5,703.9c0-0.3,0-0.7,0-1c0-1.2-0.1-2.4-0.2-3.5c0-0.3-0.1-0.5-0.1-0.8c0-0.3-0.1-0.6-0.1-0.9
				c-0.1-0.5-0.1-0.9-0.2-1.4c0-0.3-0.1-0.5-0.1-0.8c0-0.2-0.1-0.4-0.1-0.6c-0.2-1.5-0.5-3-0.9-4.5c-0.1-0.3-0.2-0.6-0.2-0.9
				c-0.2-0.6-0.3-1.2-0.5-1.8c-0.1-0.3-0.2-0.6-0.3-0.9c-0.1-0.3-0.2-0.6-0.3-0.9c-0.3-0.9-0.6-1.8-0.9-2.7
				c-0.1-0.3-0.2-0.6-0.3-0.9l-0.4-0.9c-0.1-0.3-0.3-0.6-0.4-0.9c-0.2-0.6-0.5-1.1-0.7-1.7c0,0,0,0,0-0.1c-0.4-0.8-0.8-1.6-1.2-2.4
				c-0.1-0.1-0.1-0.3-0.2-0.4c-0.2-0.4-0.4-0.8-0.6-1.1c-0.1-0.2-0.2-0.4-0.3-0.6c-0.1-0.1-0.1-0.2-0.2-0.4c-0.2-0.3-0.4-0.6-0.6-1
				s-0.4-0.6-0.6-1c-0.1-0.2-0.2-0.3-0.3-0.5c-0.2-0.3-0.3-0.5-0.5-0.8c-0.1-0.2-0.3-0.4-0.4-0.6c-0.2-0.3-0.4-0.6-0.6-0.8
				c-0.2-0.3-0.5-0.7-0.7-1c0,0,0,0,0,0c-0.2-0.3-0.4-0.5-0.6-0.8c-0.2-0.3-0.5-0.7-0.7-1c-0.2-0.2-0.4-0.5-0.6-0.7
				c-0.1-0.2-0.3-0.4-0.5-0.6c-0.2-0.2-0.4-0.4-0.6-0.7c-0.1-0.1-0.2-0.3-0.3-0.4c-0.3-0.3-0.6-0.7-0.9-1c0,0,0-0.1-0.1-0.1
				c-0.1-0.1-0.3-0.3-0.4-0.4c-0.4-0.4-0.8-0.9-1.3-1.3c-0.4-0.4-0.9-0.9-1.3-1.3c-0.4-0.4-0.9-0.8-1.3-1.2
				c-0.4-0.4-0.9-0.8-1.4-1.2c-0.3-0.3-0.6-0.6-1-0.8c-0.3-0.3-0.6-0.5-1-0.8c-0.1-0.1-0.2-0.1-0.3-0.2c-0.3-0.3-0.7-0.5-1-0.8
				c-0.2-0.1-0.4-0.3-0.5-0.4c-0.2-0.1-0.4-0.3-0.6-0.4c-0.1-0.1-0.2-0.1-0.3-0.2c-0.2-0.1-0.4-0.3-0.6-0.4
				c-0.4-0.3-0.8-0.5-1.2-0.8c-0.2-0.1-0.3-0.2-0.5-0.3c-0.4-0.2-0.8-0.5-1.1-0.7c-0.6-0.3-1.1-0.7-1.7-1c-0.1,0-0.1-0.1-0.2-0.1
				c-0.3-0.2-0.6-0.3-0.9-0.5c-0.1,0-0.1-0.1-0.2-0.1c-0.3-0.2-0.6-0.3-0.9-0.5c-0.8-0.4-1.6-0.8-2.5-1.2c-0.2-0.1-0.5-0.2-0.7-0.3
				c-0.2-0.1-0.5-0.2-0.7-0.3c-0.2-0.1-0.4-0.2-0.6-0.3c-0.1,0-0.1,0-0.2-0.1c-0.4-0.2-0.9-0.3-1.3-0.5c-0.2-0.1-0.4-0.2-0.6-0.2
				c-0.1,0-0.2-0.1-0.3-0.1c-0.3-0.1-0.6-0.2-0.9-0.3c-0.2-0.1-0.4-0.1-0.6-0.2c-0.2-0.1-0.3-0.1-0.5-0.2c-0.2-0.1-0.5-0.2-0.7-0.2
				c-0.1,0-0.2-0.1-0.3-0.1c-0.3-0.1-0.5-0.2-0.8-0.2c-0.3-0.1-0.6-0.2-0.8-0.2c-0.8-0.2-1.7-0.5-2.5-0.6c-0.3-0.1-0.7-0.1-1-0.2
				c-1.4-0.3-2.9-0.6-4.3-0.8c-0.2,0-0.4-0.1-0.6-0.1c-0.7-0.1-1.5-0.2-2.2-0.2c-0.6-0.1-1.2-0.1-1.8-0.1c-0.1,0-0.3,0-0.4,0
				c-0.4,0-0.8,0-1.1-0.1c-0.3,0-0.7,0-1,0c-0.5,0-0.9,0-1.4,0h-48.4h-28.6h0c-0.7,0-1.5,0-2.2,0c-0.2,0-0.3,0-0.5,0
				c-0.7,0-1.5,0.1-2.2,0.1c0,0-0.1,0-0.1,0c-0.7,0.1-1.5,0.1-2.2,0.2c-0.1,0-0.2,0-0.2,0c-0.8,0.1-1.5,0.2-2.3,0.3c0,0,0,0,0,0
				c0,0,0,0-0.1,0c-0.5,0.1-1,0.2-1.5,0.3c0,0,0,0-0.1,0c-0.5,0.1-1,0.2-1.5,0.3c0,0,0,0,0,0c-0.5,0.1-1,0.2-1.5,0.4c0,0,0,0,0,0
				c-8.3,2-16,5.7-22.6,10.7c0,0-0.1,0.1-0.1,0.1c-0.4,0.3-0.7,0.5-1.1,0.8c-0.1,0.1-0.2,0.1-0.3,0.2c-0.3,0.2-0.6,0.5-0.9,0.7
				c-0.1,0.1-0.2,0.2-0.3,0.3c-0.3,0.2-0.5,0.5-0.8,0.7c-0.1,0.1-0.3,0.2-0.4,0.4c-0.2,0.2-0.5,0.4-0.7,0.6
				c-0.2,0.1-0.3,0.3-0.4,0.4c-0.2,0.2-0.4,0.4-0.6,0.6c-0.2,0.2-0.3,0.3-0.5,0.5c-0.2,0.2-0.4,0.4-0.6,0.6
				c-0.2,0.2-0.3,0.3-0.5,0.5c-0.2,0.2-0.3,0.4-0.5,0.5c-0.2,0.2-0.4,0.4-0.5,0.6c-0.2,0.2-0.3,0.3-0.5,0.5
				c-0.2,0.2-0.4,0.4-0.6,0.6c-0.1,0.2-0.3,0.3-0.4,0.5c-0.2,0.2-0.4,0.4-0.6,0.7c-0.1,0.2-0.3,0.3-0.4,0.5
				c-0.2,0.2-0.4,0.5-0.6,0.7c-0.1,0.1-0.2,0.3-0.3,0.4c-0.2,0.3-0.4,0.5-0.6,0.8c-0.1,0.1-0.2,0.3-0.3,0.4
				c-0.2,0.3-0.4,0.5-0.6,0.8c-0.1,0.1-0.2,0.2-0.2,0.4c-0.2,0.3-0.4,0.5-0.5,0.8c0,0,0,0.1-0.1,0.1c-0.4,0.5-0.7,1.1-1.1,1.7
				c-0.1,0.1-0.1,0.2-0.2,0.3c-3.1,5-5.6,10.5-7.1,16.4c0,0,0,0,0,0c-0.4,1.4-0.7,2.9-1,4.4c0,0.1,0,0.1,0,0.2
				c-0.3,1.4-0.5,2.8-0.7,4.3c0,0.1,0,0.3,0,0.4c-0.2,1.4-0.3,2.8-0.3,4.2c0,0.2,0,0.3,0,0.5c0,0.7,0,1.4,0,2.1c0,0,0,0,0,0v0
				c0,0,0,0,0,0c0,0.7,0,1.4,0,2.1c0,0.2,0,0.4,0,0.6c0,0.5,0.1,1.1,0.1,1.6c0,0.2,0,0.4,0,0.5c0.1,0.7,0.1,1.4,0.2,2.1
				c0,0.1,0,0.3,0.1,0.4c0.1,0.6,0.1,1.2,0.2,1.7c0,0.2,0.1,0.4,0.1,0.5c0.1,0.7,0.2,1.3,0.3,2c0,0,0,0.1,0,0.1
				c0.1,0.7,0.3,1.4,0.4,2.1c0,0.1,0.1,0.3,0.1,0.4c0.1,0.6,0.3,1.2,0.4,1.7c0,0.1,0.1,0.2,0.1,0.4c0.2,0.7,0.4,1.4,0.6,2.1
				c0,0,0,0,0,0.1c0.2,0.6,0.4,1.3,0.6,1.9c0.1,0.2,0.1,0.3,0.2,0.5c0.2,0.5,0.4,1.1,0.6,1.6c0,0.1,0.1,0.2,0.1,0.3
				c0.2,0.6,0.5,1.2,0.8,1.8c0.1,0.2,0.2,0.4,0.3,0.6c0.2,0.4,0.3,0.8,0.5,1.1c0.1,0.3,0.3,0.5,0.4,0.8c0.1,0.3,0.3,0.6,0.4,0.8
				c0.4,0.7,0.7,1.4,1.1,2.1c0,0,0,0.1,0.1,0.1c0.8,1.5,1.7,2.9,2.7,4.3c4.2,6.2,9.6,11.6,15.7,15.9c0,0,0.1,0.1,0.1,0.1
				c0.3,0.2,0.7,0.5,1,0.7c0.1,0,0.1,0.1,0.2,0.1c0.3,0.2,0.6,0.4,1,0.6c0.1,0,0.1,0.1,0.2,0.1c1,0.6,2,1.2,3,1.8
				c0.1,0.1,0.3,0.2,0.4,0.2c0.2,0.1,0.5,0.3,0.7,0.4c0.2,0.1,0.4,0.2,0.6,0.3c0.2,0.1,0.5,0.2,0.7,0.4c0.2,0.1,0.4,0.2,0.6,0.3
				c0.2,0.1,0.5,0.2,0.7,0.3c0.2,0.1,0.4,0.2,0.7,0.3c0.2,0.1,0.5,0.2,0.7,0.3c0.2,0.1,0.4,0.2,0.7,0.3c0.2,0.1,0.5,0.2,0.7,0.3
				c0.2,0.1,0.4,0.2,0.7,0.3c0.6,0.2,1.2,0.5,1.8,0.7c0.1,0,0.1,0.1,0.2,0.1c0.3,0.1,0.6,0.2,0.9,0.3c0.2,0.1,0.3,0.1,0.5,0.2
				c0.3,0.1,0.6,0.2,0.9,0.3c0.2,0,0.3,0.1,0.5,0.1c0.3,0.1,0.6,0.2,1,0.3c0.1,0,0.3,0.1,0.4,0.1c0.3,0.1,0.7,0.2,1,0.3
				c0.1,0,0.2,0,0.3,0.1c1.8,0.5,3.7,0.9,5.5,1.2c0.2,0,0.5,0.1,0.7,0.1c0.4,0.1,0.7,0.1,1.1,0.2c0.3,0,0.6,0.1,0.9,0.1
				c0.6,0.1,1.2,0.1,1.8,0.2c0.2,0,0.4,0,0.6,0c0.7,0.1,1.4,0.1,2,0.1c0.1,0,0.3,0,0.4,0c0.7,0,1.5,0,2.2,0h0h72.8
				c9.6,0,18.2,3.9,24.5,10.1c6.3,6.3,10.1,14.9,10.1,24.5c0,19.1-15.5,34.6-34.6,34.6h-10.7h-22.4l20.6-55h-83l-20.6,55l-10,26.8
				v0.3h53.8h61.6h10.7c34,0,61.6-27.6,61.6-61.6c0-18.5-8.2-35.1-21.1-46.4c0.8-0.6,1.5-1.1,2.2-1.7c0.2-0.2,0.5-0.4,0.7-0.6
				c0.5-0.4,0.9-0.8,1.4-1.1c0.4-0.4,0.9-0.8,1.3-1.2c0.4-0.4,0.9-0.8,1.3-1.2c0.1-0.1,0.3-0.3,0.4-0.4c0.2-0.2,0.3-0.3,0.5-0.5
				c0.3-0.3,0.7-0.7,1-1c0.9-0.9,1.7-1.9,2.6-2.9c0.2-0.2,0.4-0.4,0.5-0.7c0.1-0.2,0.3-0.3,0.4-0.5c0.2-0.2,0.4-0.5,0.5-0.7
				c0.2-0.2,0.4-0.5,0.5-0.7c0.2-0.2,0.4-0.5,0.5-0.7c0.1-0.2,0.2-0.4,0.4-0.5c0.1-0.1,0.2-0.2,0.2-0.3c0.3-0.4,0.6-0.9,0.9-1.3
				c0.5-0.7,0.9-1.4,1.4-2.2c0.1-0.1,0.1-0.2,0.2-0.3c0.1-0.2,0.2-0.4,0.3-0.6c0.1-0.3,0.3-0.5,0.4-0.8c0.3-0.5,0.6-1,0.8-1.6
				c0.1-0.3,0.3-0.5,0.4-0.8c0.3-0.5,0.5-1.1,0.8-1.6c0.2-0.3,0.3-0.6,0.4-1c0.1-0.3,0.3-0.6,0.4-1c0.1-0.2,0.2-0.5,0.3-0.7
				c0.1-0.3,0.3-0.6,0.4-1c0.1-0.4,0.3-0.7,0.4-1.1c0-0.1,0.1-0.2,0.1-0.3c0.2-0.4,0.3-0.9,0.4-1.3c0,0,0-0.1,0-0.1
				c0.2-0.5,0.3-0.9,0.5-1.4c0-0.1,0.1-0.2,0.1-0.3c0.2-0.6,0.3-1.1,0.5-1.7c0.2-0.7,0.4-1.5,0.6-2.2c0.1-0.3,0.1-0.5,0.2-0.8
				c0-0.2,0.1-0.5,0.1-0.7c0.2-1,0.4-1.9,0.5-2.9c0.2-1.6,0.4-3.2,0.5-4.9c0-0.2,0-0.4,0-0.6c0-0.3,0-0.6,0.1-0.9c0-0.2,0-0.4,0-0.7
				c0-0.8,0.1-1.6,0.1-2.4v0C669.5,704.6,669.5,704.2,669.5,703.9z M549.4,670.3h48.8l14.2,14.2l3.8,3.8c2-0.8,4.3-1.3,6.6-1.3
				c9.9,0,17.9,8,17.9,17.9c0,9.9-8,17.9-17.9,17.9c-9.9,0-17.9-8-17.9-17.9c0-2.3,0.4-4.6,1.3-6.6l-13.8-13.8h-48.2l-20.3,54.3
				c-0.4-0.1-0.9-0.2-1.3-0.3c-0.1,0-0.2-0.1-0.3-0.1c-0.4-0.1-0.7-0.2-1.1-0.3c-1-0.3-2-0.6-2.9-1c-0.1,0-0.2-0.1-0.3-0.1
				c-0.2-0.1-0.5-0.2-0.7-0.3c-0.1,0-0.2-0.1-0.3-0.1c-0.2-0.1-0.5-0.2-0.7-0.3c-0.1-0.1-0.2-0.1-0.4-0.2c-0.2-0.1-0.5-0.2-0.7-0.3
				c-0.1-0.1-0.2-0.1-0.3-0.2c-0.2-0.1-0.5-0.2-0.7-0.4c-0.1,0-0.1-0.1-0.2-0.1c-0.8-0.5-1.7-1-2.5-1.5c0,0-0.1,0-0.1-0.1
				c-0.2-0.2-0.5-0.3-0.7-0.5c-0.1-0.1-0.1-0.1-0.2-0.2c-0.2-0.2-0.4-0.3-0.7-0.5c-0.1-0.1-0.1-0.1-0.2-0.2
				c-0.2-0.2-0.4-0.4-0.7-0.5c-0.1-0.1-0.1-0.1-0.2-0.2c-0.2-0.2-0.5-0.4-0.7-0.6c0,0-0.1-0.1-0.1-0.1c-0.5-0.5-1-0.9-1.5-1.4
				c-6.3-6.3-10.1-14.9-10.1-24.5c0-9.3,3.7-17.8,9.7-24c0,0,0,0,0.1-0.1c0.3-0.3,0.6-0.6,0.9-0.9c0,0,0.1-0.1,0.1-0.1
				c0.3-0.3,0.6-0.6,0.9-0.8c0,0,0,0,0,0c1-0.9,2-1.7,3.1-2.4c0,0,0.1-0.1,0.1-0.1c0.3-0.2,0.6-0.4,0.9-0.6c0.1-0.1,0.2-0.1,0.3-0.2
				c0.3-0.2,0.6-0.4,0.9-0.6c0.1-0.1,0.2-0.1,0.3-0.2c0.3-0.2,0.6-0.4,1-0.5c0.1,0,0.1-0.1,0.2-0.1c1.1-0.6,2.2-1.1,3.3-1.5
				c0.1-0.1,0.3-0.1,0.4-0.2c0.3-0.1,0.6-0.2,0.9-0.3c0.2-0.1,0.3-0.1,0.5-0.2c0.3-0.1,0.6-0.2,1-0.3c0.2-0.1,0.4-0.1,0.6-0.2
				c0.4-0.1,0.9-0.2,1.4-0.3c0.2-0.1,0.4-0.1,0.7-0.2c0.3-0.1,0.5-0.1,0.8-0.2c0.3,0,0.5-0.1,0.8-0.1c0.2,0,0.5-0.1,0.7-0.1
				c0.5-0.1,0.9-0.1,1.4-0.2c0.2,0,0.3,0,0.5,0c0.4,0,0.7-0.1,1.1-0.1c0.2,0,0.3,0,0.5,0c0.5,0,1,0,1.5,0c0,0,0,0,0,0H549.4z"/>
			
				<linearGradient id="SVGID_00000161604196515115583460000000972403475152504247_" gradientUnits="userSpaceOnUse" x1="656.8062" y1="662.0142" x2="493.5186" y2="867.3127">
				<stop  offset="0" style="stop-color:#33E1AE"/>
				<stop  offset="0.5223" style="stop-color:#19C0C8"/>
				<stop  offset="1" style="stop-color:#0891F1"/>
			</linearGradient>
			<path style="fill:url(#SVGID_00000161604196515115583460000000972403475152504247_);" d="M622.7,710.2c2.9,0,5.3-2.4,5.3-5.3
				c0-2.9-2.4-5.3-5.3-5.3c-2.9,0-5.3,2.4-5.3,5.3C617.4,707.8,619.8,710.2,622.7,710.2z"/>
		</g>
		
			<linearGradient id="SVGID_00000148620960958809928650000006255650058107286198_" gradientUnits="userSpaceOnUse" x1="596.6556" y1="740.3206" x2="596.6556" y2="686.1865">
			<stop  offset="0" style="stop-color:#FFFFFF;stop-opacity:0.1"/>
			<stop  offset="1" style="stop-color:#FFFFFF;stop-opacity:0"/>
		</linearGradient>
		<path style="fill:url(#SVGID_00000148620960958809928650000006255650058107286198_);" d="M669.5,703.9c0-0.3,0-0.7,0-1
			c0-1.2-0.1-2.4-0.2-3.5c0-0.3-0.1-0.5-0.1-0.8c0-0.3-0.1-0.6-0.1-0.9c-0.1-0.5-0.1-0.9-0.2-1.4c0-0.3-0.1-0.5-0.1-0.8
			c0-0.2-0.1-0.4-0.1-0.6c-0.2-1.5-0.5-3-0.9-4.5c-0.1-0.3-0.2-0.6-0.2-0.9c-0.2-0.6-0.3-1.2-0.5-1.8c-0.1-0.3-0.2-0.6-0.3-0.9
			c-0.1-0.3-0.2-0.6-0.3-0.9c-0.3-0.9-0.6-1.8-0.9-2.7c-0.1-0.3-0.2-0.6-0.3-0.9l-0.4-0.9c-0.1-0.3-0.3-0.6-0.4-0.9
			c-0.2-0.6-0.5-1.1-0.7-1.7c0,0,0,0,0-0.1c-0.4-0.8-0.8-1.6-1.2-2.4c-0.1-0.1-0.1-0.3-0.2-0.4c-0.2-0.4-0.4-0.8-0.6-1.1
			c-0.1-0.2-0.2-0.4-0.3-0.6c-0.1-0.1-0.1-0.2-0.2-0.4c-0.2-0.3-0.4-0.6-0.6-1s-0.4-0.6-0.6-1c-0.1-0.2-0.2-0.3-0.3-0.5
			c-0.2-0.3-0.3-0.5-0.5-0.8c-0.1-0.2-0.3-0.4-0.4-0.6c-0.2-0.3-0.4-0.6-0.6-0.8c-0.2-0.3-0.5-0.7-0.7-1c0,0,0,0,0,0
			c-0.2-0.3-0.4-0.5-0.6-0.8c-0.2-0.3-0.5-0.7-0.7-1c-0.2-0.2-0.4-0.5-0.6-0.7c-0.1-0.2-0.3-0.4-0.5-0.6c-0.2-0.2-0.4-0.4-0.6-0.7
			c-0.1-0.1-0.2-0.3-0.3-0.4c-0.3-0.3-0.6-0.7-0.9-1c0,0,0-0.1-0.1-0.1c-0.1-0.1-0.3-0.3-0.4-0.4c-0.4-0.4-0.8-0.9-1.3-1.3
			c-0.4-0.4-0.9-0.9-1.3-1.3c-0.4-0.4-0.9-0.8-1.3-1.2c-0.4-0.4-0.9-0.8-1.4-1.2c-0.3-0.3-0.6-0.6-1-0.8c-0.3-0.3-0.6-0.5-1-0.8
			c-0.1-0.1-0.2-0.1-0.3-0.2c-0.3-0.3-0.7-0.5-1-0.8c-0.2-0.1-0.4-0.3-0.5-0.4c-0.2-0.1-0.4-0.3-0.6-0.4c-0.1-0.1-0.2-0.1-0.3-0.2
			c-0.2-0.1-0.4-0.3-0.6-0.4c-0.4-0.3-0.8-0.5-1.2-0.8c-0.2-0.1-0.3-0.2-0.5-0.3c-0.4-0.2-0.8-0.5-1.1-0.7c-0.6-0.3-1.1-0.7-1.7-1
			c-0.1,0-0.1-0.1-0.2-0.1c-0.3-0.2-0.6-0.3-0.9-0.5c-0.1,0-0.1-0.1-0.2-0.1c-0.3-0.2-0.6-0.3-0.9-0.5c-0.8-0.4-1.6-0.8-2.5-1.2
			c-0.2-0.1-0.5-0.2-0.7-0.3c-0.2-0.1-0.5-0.2-0.7-0.3c-0.2-0.1-0.4-0.2-0.6-0.3c-0.1,0-0.1,0-0.2-0.1c-0.4-0.2-0.9-0.3-1.3-0.5
			c-0.2-0.1-0.4-0.2-0.6-0.2c-0.1,0-0.2-0.1-0.3-0.1c-0.3-0.1-0.6-0.2-0.9-0.3c-0.2-0.1-0.4-0.1-0.6-0.2c-0.2-0.1-0.3-0.1-0.5-0.2
			c-0.2-0.1-0.5-0.2-0.7-0.2c-0.1,0-0.2-0.1-0.3-0.1c-0.3-0.1-0.5-0.2-0.8-0.2c-0.3-0.1-0.6-0.2-0.8-0.2c-0.8-0.2-1.7-0.5-2.5-0.6
			c-0.3-0.1-0.7-0.1-1-0.2c-1.4-0.3-2.9-0.6-4.3-0.8c-0.2,0-0.4-0.1-0.6-0.1c-0.7-0.1-1.5-0.2-2.2-0.2c-0.6-0.1-1.2-0.1-1.8-0.1
			c-0.1,0-0.3,0-0.4,0c-0.4,0-0.8,0-1.1-0.1c-0.3,0-0.7,0-1,0c-0.5,0-0.9,0-1.4,0h-48.4l-10.1,27h48.8l14.2,14.2l3.8,3.8
			c2-0.8,4.3-1.3,6.6-1.3c9.9,0,17.9,8,17.9,17.9c0,9.9-8,17.9-17.9,17.9c-9.9,0-17.9-8-17.9-17.9c0-2.3,0.4-4.6,1.3-6.6l-13.8-13.8
			h-48.2l-20.3,54.3c2.3,0.5,4.7,0.7,7.1,0.7h72.8c15.5,0,29.7,5.7,40.6,15.2c0.8-0.6,1.5-1.1,2.2-1.7c0.2-0.2,0.5-0.4,0.7-0.6
			c0.5-0.4,0.9-0.8,1.4-1.1c0.4-0.4,0.9-0.8,1.3-1.2c0.4-0.4,0.9-0.8,1.3-1.2c0.1-0.1,0.3-0.3,0.4-0.4c0.2-0.2,0.3-0.3,0.5-0.5
			c0.3-0.3,0.7-0.7,1-1c0.9-0.9,1.7-1.9,2.6-2.9c0.2-0.2,0.4-0.4,0.5-0.7c0.1-0.2,0.3-0.3,0.4-0.5c0.2-0.2,0.4-0.5,0.5-0.7
			c0.2-0.2,0.4-0.5,0.5-0.7c0.2-0.2,0.4-0.5,0.5-0.7c0.1-0.2,0.2-0.4,0.4-0.5c0.1-0.1,0.2-0.2,0.2-0.3c0.3-0.4,0.6-0.9,0.9-1.3
			c0.5-0.7,0.9-1.4,1.4-2.2c0.1-0.1,0.1-0.2,0.2-0.3c0.1-0.2,0.2-0.4,0.3-0.6c0.1-0.3,0.3-0.5,0.4-0.8c0.3-0.5,0.6-1,0.8-1.6
			c0.1-0.3,0.3-0.5,0.4-0.8c0.3-0.5,0.5-1.1,0.8-1.6c0.2-0.3,0.3-0.6,0.4-1c0.1-0.3,0.3-0.6,0.4-1c0.1-0.2,0.2-0.5,0.3-0.7
			c0.1-0.3,0.3-0.6,0.4-1c0.1-0.4,0.3-0.7,0.4-1.1c0-0.1,0.1-0.2,0.1-0.3c0.2-0.4,0.3-0.9,0.4-1.3c0,0,0-0.1,0-0.1
			c0.2-0.5,0.3-0.9,0.5-1.4c0-0.1,0.1-0.2,0.1-0.3c0.2-0.6,0.3-1.1,0.5-1.7c0.2-0.7,0.4-1.5,0.6-2.2c0.1-0.3,0.1-0.5,0.2-0.8
			c0-0.2,0.1-0.5,0.1-0.7c0.2-1,0.4-1.9,0.5-2.9c0.2-1.6,0.4-3.2,0.5-4.9c0-0.2,0-0.4,0-0.6c0-0.3,0-0.6,0.1-0.9c0-0.2,0-0.4,0-0.7
			c0-0.8,0.1-1.6,0.1-2.4v0C669.5,704.6,669.5,704.2,669.5,703.9z"/>
	</g>
</g>
</svg>
